<?xml version="1.0" encoding="iso-8859-1"?>
<!-- Generator: Adobe Illustrator 19.0.0, SVG Export Plug-In . SVG Version: 6.00 Build 0)  -->
<svg version="1.1" id="Capa_1" xmlns="http://www.w3.org/2000/svg" xmlns:xlink="http://www.w3.org/1999/xlink" x="0px" y="0px"
	 viewBox="0 0 409.6 409.6" style="enable-background:new 0 0 409.6 409.6;" xml:space="preserve">
<path style="fill:#EAC583;" d="M235.52,314.027L235.52,314.027c-19.338,8.595-42.102,8.595-61.44,0l0,0V266.24h61.44V314.027z"/>
<path d="M204.8,327.253c-11.503,0-23.006-2.33-33.493-6.987c-2.463-1.096-4.053-3.543-4.053-6.24V266.24
	c0-3.77,3.057-6.827,6.827-6.827h61.44c3.77,0,6.827,3.057,6.827,6.827v47.787c0,2.697-1.591,5.144-4.053,6.24
	C227.806,324.924,216.303,327.253,204.8,327.253z M235.52,314.027h0.067H235.52z M180.907,309.431
	c15.241,5.586,32.546,5.586,47.787,0v-36.364h-47.787V309.431z"/>
<path style="fill:#FFFFFF;" d="M331.093,402.773H78.507v-33.886c0-23.296,22.132-42.182,49.435-42.182l76.858-12.679l76.858,12.679
	c27.302,0,49.435,18.886,49.435,42.182V402.773z"/>
<path d="M331.093,409.6H78.507c-3.77,0-6.827-3.057-6.827-6.827v-33.886c0-26.856,24.926-48.741,55.687-49.007l76.324-12.59
	c0.734-0.119,1.486-0.119,2.22,0l76.324,12.59c30.759,0.266,55.685,22.149,55.685,49.007v33.886
	C337.92,406.543,334.863,409.6,331.093,409.6z M85.333,395.947h238.933v-27.059c0-19.497-19.113-35.357-42.607-35.357
	c-0.374,0-0.744-0.031-1.109-0.09l-75.75-12.493l-75.75,12.493c-0.367,0.06-0.737,0.09-1.109,0.09
	c-23.494,0-42.607,15.86-42.607,35.357V395.947z"/>
<path style="fill:#FFDD95;" d="M241.437,279.893h-73.274c-15.584,0-28.216-12.633-28.216-28.216v-101.49h129.707v101.49
	C269.653,267.261,257.021,279.893,241.437,279.893z"/>
<path d="M241.437,286.72h-73.274c-19.323,0-35.043-15.72-35.043-35.043v-101.49c0-3.77,3.057-6.827,6.827-6.827h129.707
	c3.77,0,6.827,3.057,6.827,6.827v101.49C276.48,271,260.76,286.72,241.437,286.72z M146.773,157.013v94.664
	c0,11.793,9.597,21.39,21.39,21.39h73.274c11.793,0,21.39-9.597,21.39-21.39v-94.664H146.773z"/>
<polygon style="fill:#FFFFFF;" points="208.213,314.027 146.773,314.027 146.773,348.16 "/>
<path d="M146.773,354.987c-1.196,0-2.393-0.314-3.463-0.944c-2.084-1.225-3.364-3.463-3.364-5.883v-34.133
	c0-3.77,3.057-6.827,6.827-6.827h61.44c3.11,0,5.827,2.103,6.61,5.113c0.78,3.014-0.577,6.17-3.294,7.68l-61.44,34.133
	C149.057,354.7,147.913,354.987,146.773,354.987z M153.6,320.853v15.703l28.269-15.703H153.6z"/>
<polygon style="fill:#FFFFFF;" points="201.387,314.027 262.827,314.027 262.827,348.16 "/>
<path d="M262.827,354.987c-1.14,0-2.284-0.287-3.316-0.86l-61.44-34.133c-2.717-1.51-4.074-4.666-3.294-7.68
	c0.783-3.011,3.5-5.113,6.61-5.113h61.44c3.77,0,6.827,3.057,6.827,6.827v34.133c0,2.42-1.28,4.658-3.364,5.883
	C265.219,354.673,264.023,354.987,262.827,354.987z M227.731,320.853L256,336.556v-15.703H227.731z"/>
<path style="fill:#FFFFFF;" d="M303.787,61.44c0-30.162-24.451-54.613-54.613-54.613c-18.304,0-34.464,9.037-44.373,22.857
	c-9.909-13.821-26.069-22.857-44.373-22.857c-30.162,0-54.613,24.451-54.613,54.613c0,22.914,14.128,42.501,34.133,50.606v38.141
	h129.707v-38.141C289.659,103.941,303.787,84.354,303.787,61.44z"/>
<path d="M269.653,157.013H139.947c-3.77,0-6.827-3.057-6.827-6.827V116.46c-20.883-10.332-34.133-31.449-34.133-55.02
	c0-33.877,27.563-61.44,61.44-61.44c16.811,0,32.857,6.987,44.373,19.021C216.317,6.987,232.363,0,249.173,0
	c33.877,0,61.44,27.563,61.44,61.44c0,23.571-13.251,44.687-34.133,55.02v33.727C276.48,153.957,273.423,157.013,269.653,157.013z
	 M146.773,143.36h116.053v-31.314c0-2.78,1.686-5.284,4.263-6.327c18.147-7.352,29.87-24.733,29.87-44.279
	c0-26.349-21.437-47.787-47.787-47.787c-15.326,0-29.843,7.48-38.827,20.007c-2.56,3.581-8.533,3.581-11.093,0
	c-8.984-12.527-23.501-20.007-38.827-20.007c-26.349,0-47.787,21.437-47.787,47.787c0,19.546,11.723,36.927,29.87,44.279
	c2.577,1.043,4.263,3.546,4.263,6.327V143.36z"/>
<path d="M118.449,253.244c-3.4,0-6.523-0.503-9.286-1.623c-4.78-1.937-8.177-5.577-9.827-10.527
	c-1.193-3.577,0.741-7.443,4.316-8.637c3.596-1.196,7.443,0.744,8.637,4.316c0.387,1.167,0.93,1.76,2.004,2.193
	c10.4,4.207,41.663-11.989,51.93-17.326c1.87-0.966,3.49-1.811,4.803-2.466c17.843-8.926,34.483,7.407,35.186,8.107
	c2.666,2.666,2.666,6.987,0,9.653c-2.664,2.664-6.973,2.666-9.636,0.017c-0.29-0.28-10.487-10.051-19.444-5.564
	c-1.263,0.63-2.823,1.44-4.62,2.374C153.926,243.407,133.49,253.244,118.449,253.244z"/>
<path d="M291.151,253.244c-15.039,0-35.477-9.837-54.064-19.483c-1.797-0.934-3.357-1.742-4.62-2.374
	c-8.996-4.516-19.326,5.441-19.427,5.547c-2.666,2.666-6.987,2.666-9.653,0s-2.666-6.987,0-9.653c0.7-0.7,17.34-17.031,35.186-8.107
	c1.314,0.657,2.934,1.5,4.803,2.466c10.271,5.33,41.544,21.55,51.93,17.326c1.073-0.433,1.616-1.027,2.004-2.193
	c1.193-3.574,5.053-5.513,8.637-4.316c3.577,1.193,5.511,5.06,4.316,8.637c-1.65,4.949-5.047,8.59-9.827,10.527
	C297.673,252.74,294.55,253.244,291.151,253.244z"/>
<g>
</g>
<g>
</g>
<g>
</g>
<g>
</g>
<g>
</g>
<g>
</g>
<g>
</g>
<g>
</g>
<g>
</g>
<g>
</g>
<g>
</g>
<g>
</g>
<g>
</g>
<g>
</g>
<g>
</g>
</svg>
